# Blender v2.78 (sub 0) OBJ File: ''
# www.blender.org
mtllib vraRoom_fibreWall.mtl
o ClosetWall_ClosetWall_auv
v -2.450000 0.000000 -1.650000
v -2.450000 2.500000 -1.650000
v -2.450000 2.500000 2.050000
v -2.450000 -0.000000 2.050000
v 2.150000 -0.000000 2.050000
v 1.630711 -0.000000 2.050000
v 1.630711 2.500000 2.050000
v 2.150000 2.500000 2.050000
v 0.050000 2.499999 4.150001
v 0.050000 2.500000 3.630711
v 0.050000 -0.000001 3.630711
v 0.050000 -0.000001 4.150000
v 0.364142 -0.000001 3.306569
v 0.057071 -0.000001 3.613640
v 0.057071 2.500000 3.613640
v 0.364142 1.999999 3.306569
v 1.306569 -0.000000 2.364142
v 1.306569 2.000000 2.364143
v 1.613640 2.500000 2.057071
v 1.613640 -0.000000 2.057071
vt 1.4563 0.0000
vt 1.4563 1.0000
vt 0.0000 1.0000
vt 0.0000 0.0000
vt 0.0000 0.0000
vt 0.2030 0.0000
vt 0.2030 1.0000
vt 0.0000 1.0000
vt 1.2858 1.0000
vt 1.0828 1.0000
vt 1.0828 0.0000
vt 1.2858 0.0000
vt 0.9052 0.0000
vt 1.0761 0.0000
vt 1.0761 1.0000
vt 0.9052 0.8000
vt 0.3806 0.0000
vt 0.3806 0.8000
vt 0.2097 1.0000
vt 0.2097 0.0000
vn 1.0000 0.0000 0.0000
vn 0.0000 0.0000 -1.0000
vn -0.1951 0.0000 -0.9808
vn -1.0000 0.0000 0.0000
vn -0.9808 0.0000 -0.1951
vn -0.7071 0.0000 -0.7071
vn -0.8315 0.0000 -0.5556
vn -0.7929 -0.0000 -0.6093
vn -0.6093 0.0000 -0.7929
vn -0.5556 0.0000 -0.8315
usemtl ClosetWall_auv
s 1
f 1/1/1 2/2/1 3/3/1 4/4/1
f 5/5/2 6/6/3 7/7/3 8/8/2
f 9/9/4 10/10/5 11/11/5 12/12/4
f 13/13/6 14/14/7 15/15/8 16/16/6
f 17/17/6 18/18/6 19/19/9 20/20/10
f 16/16/6 15/15/8 19/19/9 18/18/6
f 19/19/9 7/7/3 6/6/3 20/20/10
f 10/10/5 15/15/8 14/14/7 11/11/5
