# Blender v2.78 (sub 0) OBJ File: ''
# www.blender.org
mtllib vraRoom_shadowCast.mtl
o shadowCaster_default
v -1.500000 1.999999 4.150001
v -2.150000 2.499999 4.150001
v -2.150000 -0.000001 4.150000
v -1.500000 -0.000001 4.150000
v -1.500000 1.999999 4.050001
v -0.500000 1.999999 4.050001
v -0.500000 1.999999 4.150001
v 0.150000 2.499999 4.150001
v -0.500000 -0.000001 4.050000
v -0.500000 -0.000001 4.150000
v 1.240000 2.000000 -2.150000
v -1.190000 2.000000 -2.150000
v -2.150000 2.500000 -2.150000
v 2.150000 2.500000 -2.150000
v 2.150000 0.000000 -2.150000
v 1.240000 0.600000 -2.150000
v -1.190000 0.600000 -2.150000
v -2.150000 0.000000 -2.150000
v -2.150000 -0.000000 2.150000
v -2.150000 2.500000 2.150001
v -2.050000 -0.000000 2.050000
v -2.050000 -0.000001 4.050000
v -2.550000 2.500000 2.150001
v -2.550000 -0.000000 2.150000
v -2.050000 2.500000 2.050000
v -2.450000 2.500000 2.050000
v 2.050000 0.000000 -2.050000
v -2.050000 0.000000 -2.050000
v 2.150000 -0.000000 2.150000
v 2.150000 2.500000 2.150001
v 2.050000 -0.000000 2.050000
v 2.050000 2.500000 -2.049999
v 2.050000 2.500000 2.050000
v 1.662132 2.500000 2.150001
v 1.662132 -0.000000 2.150000
v 1.620711 2.500000 2.050000
v -2.050000 2.499999 4.050001
v -1.500000 -0.000001 4.050000
v 0.050000 2.499999 4.050001
v 0.150000 -0.000001 4.150000
v 0.150000 -0.000001 3.662132
v 0.150000 2.499999 3.662133
v 0.050000 -0.000001 4.050000
v 0.050000 -0.000001 3.620711
v 0.050000 2.500000 3.620711
v 1.620711 -0.000000 2.050000
v -2.450000 -0.000000 2.050000
v -2.550000 2.500000 -1.750000
v -2.550000 0.000000 -1.750000
v -2.450000 2.500000 -1.650000
v -2.050000 2.500000 -2.049999
v -2.150000 0.000000 -1.750000
v -2.150000 2.500000 -1.750000
v -2.050000 0.000000 -1.650000
v -2.450000 0.000000 -1.650000
v -2.050000 2.500000 -1.650000
vn 0.4083 -0.4083 0.8165
vn -0.3334 0.6666 0.6667
vn -0.4082 -0.8165 0.4082
vn 0.5774 -0.5774 0.5774
vn 0.4085 -0.4080 -0.8165
vn -0.4080 -0.4085 -0.8165
vn -0.4083 -0.4083 0.8165
vn 0.3334 0.6667 0.6667
vn -0.5773 -0.5775 -0.5773
vn -0.5774 -0.5774 0.5774
vn -0.4083 -0.4082 -0.8165
vn 0.4082 -0.4083 -0.8165
vn -0.3334 0.6667 -0.6667
vn 0.3333 0.6667 -0.6667
vn 0.3333 -0.6667 -0.6667
vn -0.4082 0.4083 -0.8165
vn 0.4083 0.4082 -0.8165
vn -0.3334 -0.6667 -0.6667
vn -0.4083 -0.8165 0.4083
vn -0.4083 0.8165 0.4083
vn 0.4083 -0.8165 -0.4082
vn -0.4083 0.8165 0.4082
vn 0.4082 0.8165 -0.4083
vn -0.3333 -0.6667 0.6667
vn 0.3333 -0.6667 0.6667
vn 0.4082 -0.8165 0.4082
vn 0.4082 0.8165 0.4083
vn -0.4082 -0.8165 -0.4083
vn -0.3333 0.6667 0.6667
vn -0.4082 0.8165 -0.4083
vn 0.2597 0.7345 0.6269
vn 0.2597 -0.7345 0.6269
vn -0.2597 0.7345 -0.6270
vn 0.5773 -0.5775 -0.5773
vn -0.3333 0.6667 -0.6667
vn 0.6269 -0.7345 0.2597
vn 0.6269 0.7345 0.2597
vn -0.6270 -0.7345 -0.2597
vn -0.6270 0.7345 -0.2597
vn -0.2597 -0.7345 -0.6269
vn -0.4084 0.8165 -0.4081
vn -0.4082 -0.8165 -0.4082
vn 0.4083 0.8165 0.4082
vn 0.3333 0.6667 0.6667
vn -0.4083 -0.8165 -0.4083
vn -0.4083 0.8165 -0.4083
vn 0.4082 -0.8165 0.4083
usemtl default
s 1
f 1//1 2//2 3//3 4//4
f 1//1 5//5 6//6 7//7
f 7//7 8//8 2//2 1//1
f 7//7 6//6 9//9 10//10
f 11//11 12//12 13//13 14//14
f 11//11 14//14 15//15 16//16
f 17//17 16//16 15//15 18//18
f 17//17 18//18 13//13 12//12
f 19//19 3//3 2//2 20//20
f 19//19 21//21 22//21 3//3
f 20//20 23//22 24//3 19//19
f 20//20 25//23 26//23 23//22
f 15//15 27//24 28//25 18//18
f 29//26 15//15 14//14 30//27
f 29//26 31//28 27//24 15//15
f 14//14 32//29 33//30 30//27
f 30//27 34//31 35//32 29//26
f 30//27 33//30 36//33 34//31
f 2//2 37//14 25//23 20//20
f 3//3 22//21 38//34 4//4
f 8//8 39//35 37//14 2//2
f 40//26 41//36 42//37 8//8
f 40//26 43//28 44//38 41//36
f 34//31 42//37 41//36 35//32
f 34//31 36//33 45//39 42//37
f 35//32 46//40 31//28 29//26
f 41//36 44//38 46//40 35//32
f 42//37 45//39 39//35 8//8
f 24//3 47//21 21//21 19//19
f 23//22 48//41 49//42 24//3
f 23//22 26//23 50//43 48//41
f 13//13 51//44 32//29 14//14
f 18//18 52//45 53//46 13//13
f 18//18 28//25 54//47 52//45
f 10//10 40//26 8//8 7//7
f 10//10 9//9 43//28 40//26
f 4//4 38//34 5//5 1//1
f 52//45 49//42 48//41 53//46
f 52//45 54//47 55//47 49//42
f 53//46 56//43 51//44 13//13
f 49//42 55//47 47//21 24//3
f 48//41 50//43 56//43 53//46
